<?xml version="1.0" encoding="UTF-8"?>
<svg width="100px" height="100px" viewBox="0 0 100 100" xmlns="http://www.w3.org/2000/svg">
  <path d="M50.1,2.5C24.8,2.5,8.3,29.5,2.5,50.1c0,0,22.9,47.5,47.5,47.5c23.7,0,47.5-21.3,47.5-47.5
    C97.6,26.3,76.3,2.5,50.1,2.5z" fill="#4a7c59" opacity="0.85"/>
  <path d="M50.1,97.6C30.7,97.6,14.5,75,2.7,50c6.1-22.3,23.5-47.5,47.3-47.5c24.3,0,47.5,21.6,47.5,47.5
    C97.6,79.9,72.6,97.6,50.1,97.6z M11.1,51.2c10.1,19.1,23.9,36.4,38.9,36.4c16.3,0,37.5-13.2,37.5-37.5
    c0-19.3-18.5-37.5-37.5-37.5C31.7,12.6,16.9,30.9,11.1,51.2z" fill="#4a7c59"/>
  <path d="M27.9,36.2c0,0,13.4-22.6,43-22.3" fill="none" stroke="#4a7c59" stroke-linecap="round" stroke-miterlimit="10" stroke-width="1.5"/>
  <path d="M28,64.1c0,0,28.5,22.1,51.5-2.8" fill="none" stroke="#4a7c59" stroke-linecap="round" stroke-miterlimit="10" stroke-width="1.5"/>
</svg> 