<?xml version="1.0" encoding="UTF-8"?>
<svg width="200px" height="300px" viewBox="0 0 200 300" xmlns="http://www.w3.org/2000/svg">
  <!-- Grass Blades -->
  <path d="M10,300 C30,250 40,180 30,150" fill="none" stroke="#4a7c59" stroke-width="2" stroke-linecap="round"/>
  <path d="M30,300 C60,240 70,190 50,160" fill="none" stroke="#4a7c59" stroke-width="2" stroke-linecap="round"/>
  <path d="M50,300 C80,260 110,200 90,160" fill="none" stroke="#4a7c59" stroke-width="2" stroke-linecap="round"/>
  <path d="M70,300 C90,250 130,200 120,130" fill="none" stroke="#4a7c59" stroke-width="2" stroke-linecap="round"/>
  <path d="M90,300 C120,230 150,170 130,100" fill="none" stroke="#4a7c59" stroke-width="2" stroke-linecap="round"/>
  <path d="M110,300 C130,240 160,140 150,80" fill="none" stroke="#4a7c59" stroke-width="2" stroke-linecap="round"/>
  <path d="M130,300 C150,250 170,170 190,120" fill="none" stroke="#4a7c59" stroke-width="2" stroke-linecap="round"/>
  <path d="M150,300 C170,260 180,220 200,180" fill="none" stroke="#4a7c59" stroke-width="2" stroke-linecap="round"/>
  
  <!-- Grass Leaves -->
  <path d="M50,190 C30,180 10,190 5,210" fill="none" stroke="#4a7c59" stroke-width="1.5" stroke-linecap="round"/>
  <path d="M90,190 C70,170 50,175 40,190" fill="none" stroke="#4a7c59" stroke-width="1.5" stroke-linecap="round"/>
  <path d="M120,160 C100,150 80,155 70,170" fill="none" stroke="#4a7c59" stroke-width="1.5" stroke-linecap="round"/>
  <path d="M150,140 C130,130 110,140 100,160" fill="none" stroke="#4a7c59" stroke-width="1.5" stroke-linecap="round"/>
  <path d="M130,210 C110,200 90,210 85,230" fill="none" stroke="#4a7c59" stroke-width="1.5" stroke-linecap="round"/>
  <path d="M160,200 C140,190 120,200 115,220" fill="none" stroke="#4a7c59" stroke-width="1.5" stroke-linecap="round"/>
  
  <!-- Grass Tufts -->
  <path d="M40,230 C35,210 25,200 10,210" fill="none" stroke="#4a7c59" stroke-width="1" stroke-linecap="round"/>
  <path d="M60,210 C55,190 45,180 30,190" fill="none" stroke="#4a7c59" stroke-width="1" stroke-linecap="round"/>
  <path d="M110,240 C105,220 95,210 80,220" fill="none" stroke="#4a7c59" stroke-width="1" stroke-linecap="round"/>
  <path d="M140,260 C135,240 125,230 110,240" fill="none" stroke="#4a7c59" stroke-width="1" stroke-linecap="round"/>
  <path d="M170,240 C165,220 155,210 140,220" fill="none" stroke="#4a7c59" stroke-width="1" stroke-linecap="round"/>
  <path d="M190,270 C185,250 175,240 160,250" fill="none" stroke="#4a7c59" stroke-width="1" stroke-linecap="round"/>
  
  <!-- Small Grass Details -->
  <circle cx="30" cy="150" r="2" fill="#4a7c59"/>
  <circle cx="50" cy="160" r="2" fill="#4a7c59"/>
  <circle cx="90" cy="160" r="2" fill="#4a7c59"/>
  <circle cx="120" cy="130" r="2" fill="#4a7c59"/>
  <circle cx="130" cy="100" r="2" fill="#4a7c59"/>
  <circle cx="150" cy="80" r="2" fill="#4a7c59"/>
  <circle cx="190" cy="120" r="2" fill="#4a7c59"/>
  <circle cx="200" cy="180" r="2" fill="#4a7c59"/>
</svg> 