<?xml version="1.0" encoding="UTF-8"?>
<svg width="150px" height="250px" viewBox="0 0 150 250" xmlns="http://www.w3.org/2000/svg">
  <!-- Main Stems -->
  <path d="M75,250 C75,200 60,150 40,100" fill="none" stroke="#4a7c59" stroke-width="2" stroke-linecap="round"/>
  <path d="M75,250 C75,210 90,150 110,90" fill="none" stroke="#4a7c59" stroke-width="2" stroke-linecap="round"/>
  
  <!-- Fern Left -->
  <path d="M40,100 C20,90 10,70 15,50" fill="none" stroke="#4a7c59" stroke-width="1.5" stroke-linecap="round"/>
  <path d="M35,110 C15,105 5,90 10,70" fill="none" stroke="#4a7c59" stroke-width="1.5" stroke-linecap="round"/>
  <path d="M40,120 C20,115 5,110 5,90" fill="none" stroke="#4a7c59" stroke-width="1.5" stroke-linecap="round"/>
  <path d="M45,130 C25,130 10,130 10,110" fill="none" stroke="#4a7c59" stroke-width="1.5" stroke-linecap="round"/>
  <path d="M50,140 C30,145 15,150 15,130" fill="none" stroke="#4a7c59" stroke-width="1.5" stroke-linecap="round"/>
  <path d="M55,150 C35,160 20,170 20,150" fill="none" stroke="#4a7c59" stroke-width="1.5" stroke-linecap="round"/>
  <path d="M60,160 C40,175 25,185 25,165" fill="none" stroke="#4a7c59" stroke-width="1.5" stroke-linecap="round"/>
  <path d="M65,170 C45,185 30,200 30,180" fill="none" stroke="#4a7c59" stroke-width="1.5" stroke-linecap="round"/>
  <path d="M70,180 C50,200 35,210 35,190" fill="none" stroke="#4a7c59" stroke-width="1.5" stroke-linecap="round"/>
  
  <!-- Fern Right -->
  <path d="M110,90 C130,80 140,60 135,40" fill="none" stroke="#4a7c59" stroke-width="1.5" stroke-linecap="round"/>
  <path d="M105,100 C125,95 135,80 130,60" fill="none" stroke="#4a7c59" stroke-width="1.5" stroke-linecap="round"/>
  <path d="M100,110 C120,105 135,100 135,80" fill="none" stroke="#4a7c59" stroke-width="1.5" stroke-linecap="round"/>
  <path d="M95,120 C115,120 130,120 130,100" fill="none" stroke="#4a7c59" stroke-width="1.5" stroke-linecap="round"/>
  <path d="M90,130 C110,135 125,140 125,120" fill="none" stroke="#4a7c59" stroke-width="1.5" stroke-linecap="round"/>
  <path d="M85,140 C105,150 120,160 120,140" fill="none" stroke="#4a7c59" stroke-width="1.5" stroke-linecap="round"/>
  <path d="M80,150 C100,165 115,175 115,155" fill="none" stroke="#4a7c59" stroke-width="1.5" stroke-linecap="round"/>
  <path d="M75,160 C95,175 110,190 110,170" fill="none" stroke="#4a7c59" stroke-width="1.5" stroke-linecap="round"/>
  
  <!-- Small Fern Details Left -->
  <path d="M15,50 C5,40 5,30 10,20" fill="none" stroke="#4a7c59" stroke-width="1" stroke-linecap="round"/>
  <path d="M10,70 C0,65 -5,55 0,45" fill="none" stroke="#4a7c59" stroke-width="1" stroke-linecap="round"/>
  <path d="M5,90 C-5,85 -10,75 -5,65" fill="none" stroke="#4a7c59" stroke-width="1" stroke-linecap="round"/>
  <path d="M10,110 C0,115 -5,130 0,140" fill="none" stroke="#4a7c59" stroke-width="1" stroke-linecap="round"/>
  <path d="M15,130 C5,140 0,155 5,165" fill="none" stroke="#4a7c59" stroke-width="1" stroke-linecap="round"/>
  <path d="M20,150 C10,160 5,175 10,185" fill="none" stroke="#4a7c59" stroke-width="1" stroke-linecap="round"/>
  <path d="M25,165 C15,175 10,190 15,200" fill="none" stroke="#4a7c59" stroke-width="1" stroke-linecap="round"/>
  <path d="M30,180 C20,190 15,205 20,215" fill="none" stroke="#4a7c59" stroke-width="1" stroke-linecap="round"/>
  <path d="M35,190 C25,200 20,215 25,225" fill="none" stroke="#4a7c59" stroke-width="1" stroke-linecap="round"/>
  
  <!-- Small Fern Details Right -->
  <path d="M135,40 C145,30 145,20 140,10" fill="none" stroke="#4a7c59" stroke-width="1" stroke-linecap="round"/>
  <path d="M130,60 C140,55 145,45 140,35" fill="none" stroke="#4a7c59" stroke-width="1" stroke-linecap="round"/>
  <path d="M135,80 C145,75 150,65 145,55" fill="none" stroke="#4a7c59" stroke-width="1" stroke-linecap="round"/>
  <path d="M130,100 C140,105 145,120 140,130" fill="none" stroke="#4a7c59" stroke-width="1" stroke-linecap="round"/>
  <path d="M125,120 C135,130 140,145 135,155" fill="none" stroke="#4a7c59" stroke-width="1" stroke-linecap="round"/>
  <path d="M120,140 C130,150 135,165 130,175" fill="none" stroke="#4a7c59" stroke-width="1" stroke-linecap="round"/>
  <path d="M115,155 C125,165 130,180 125,190" fill="none" stroke="#4a7c59" stroke-width="1" stroke-linecap="round"/>
  <path d="M110,170 C120,180 125,195 120,205" fill="none" stroke="#4a7c59" stroke-width="1" stroke-linecap="round"/>
</svg> 